<?xml version="1.0" encoding="UTF-8" standalone="no"?>
<!DOCTYPE svg PUBLIC "-//W3C//DTD SVG 1.1//EN"
 "http://www.w3.org/Graphics/SVG/1.1/DTD/svg11.dtd">
<!-- Generated by graphviz version 12.2.1 (20241206.2353)
 -->
<!-- Title: G Pages: 1 -->
<svg width="1245pt" height="820pt"
 viewBox="0.00 0.00 1244.59 819.77" xmlns="http://www.w3.org/2000/svg" xmlns:xlink="http://www.w3.org/1999/xlink">
<g id="graph0" class="graph" transform="scale(1 1) rotate(0) translate(4 815.77)">
<title>G</title>
<polygon fill="black" stroke="none" points="-4,4 -4,-815.77 1240.59,-815.77 1240.59,4 -4,4"/>
<text text-anchor="middle" x="618.3" y="-794.47" font-family="Times,serif" font-size="14.00">Coloring for 4 colors and 44 numbers</text>
<!-- 1 -->
<g id="node1" class="node">
<title>1</title>
<ellipse fill="none" stroke="#fc17da" stroke-width="4" cx="349.46" cy="-242.8" rx="17.32" ry="17.32"/>
<text text-anchor="middle" x="349.46" y="-237.75" font-family="Times,serif" font-size="14.00" fill="white">1</text>
</g>
<!-- 2 -->
<g id="node2" class="node">
<title>2</title>
<ellipse fill="none" stroke="#ffff00" stroke-width="4" cx="431.53" cy="-257.27" rx="17.32" ry="17.32"/>
<text text-anchor="middle" x="431.53" y="-252.22" font-family="Times,serif" font-size="14.00" fill="white">2</text>
</g>
<!-- 1&#45;&#45;2 -->
<g id="edge1" class="edge">
<title>1&#45;&#45;2</title>
<path fill="none" stroke="white" d="M368.08,-246.08C381.42,-248.43 399.31,-251.59 412.69,-253.95"/>
</g>
<!-- 10 -->
<g id="node10" class="node">
<title>10</title>
<ellipse fill="none" stroke="#19de12" stroke-width="4" cx="237.57" cy="-436.59" rx="20.86" ry="20.86"/>
<text text-anchor="middle" x="237.57" y="-431.54" font-family="Times,serif" font-size="14.00" fill="white">10</text>
</g>
<!-- 1&#45;&#45;10 -->
<g id="edge10" class="edge">
<title>1&#45;&#45;10</title>
<path fill="none" stroke="white" d="M339.92,-259.32C319.36,-294.93 270.96,-378.75 248.9,-416.98"/>
</g>
<!-- 3 -->
<g id="node3" class="node">
<title>3</title>
<ellipse fill="none" stroke="#fc17da" stroke-width="4" cx="503.69" cy="-215.6" rx="17.32" ry="17.32"/>
<text text-anchor="middle" x="503.69" y="-210.55" font-family="Times,serif" font-size="14.00" fill="white">3</text>
</g>
<!-- 2&#45;&#45;3 -->
<g id="edge2" class="edge">
<title>2&#45;&#45;3</title>
<path fill="none" stroke="white" d="M447.9,-247.81C459.63,-241.04 475.36,-231.96 487.13,-225.16"/>
</g>
<!-- 20 -->
<g id="node20" class="node">
<title>20</title>
<ellipse fill="none" stroke="#38befc" stroke-width="4" cx="470.38" cy="-477.64" rx="20.86" ry="20.86"/>
<text text-anchor="middle" x="470.38" y="-472.59" font-family="Times,serif" font-size="14.00" fill="white">20</text>
</g>
<!-- 2&#45;&#45;20 -->
<g id="edge21" class="edge">
<title>2&#45;&#45;20</title>
<path fill="none" stroke="white" d="M434.84,-276.06C441.98,-316.55 458.79,-411.87 466.45,-455.34"/>
</g>
<!-- 4 -->
<g id="node4" class="node">
<title>4</title>
<ellipse fill="none" stroke="#38befc" stroke-width="4" cx="532.19" cy="-137.3" rx="17.32" ry="17.32"/>
<text text-anchor="middle" x="532.19" y="-132.25" font-family="Times,serif" font-size="14.00" fill="white">4</text>
</g>
<!-- 3&#45;&#45;4 -->
<g id="edge3" class="edge">
<title>3&#45;&#45;4</title>
<path fill="none" stroke="white" d="M510.16,-197.83C514.79,-185.11 521.01,-168.04 525.65,-155.27"/>
</g>
<!-- 30 -->
<g id="node30" class="node">
<title>30</title>
<ellipse fill="none" stroke="#38befc" stroke-width="4" cx="700.12" cy="-380.42" rx="20.86" ry="20.86"/>
<text text-anchor="middle" x="700.12" y="-375.37" font-family="Times,serif" font-size="14.00" fill="white">30</text>
</g>
<!-- 3&#45;&#45;30 -->
<g id="edge32" class="edge">
<title>3&#45;&#45;30</title>
<path fill="none" stroke="white" d="M518.46,-227.99C554.06,-257.86 644.49,-333.75 682.68,-365.79"/>
</g>
<!-- 5 -->
<g id="node5" class="node">
<title>5</title>
<ellipse fill="none" stroke="#fc17da" stroke-width="4" cx="503.69" cy="-58.99" rx="17.32" ry="17.32"/>
<text text-anchor="middle" x="503.69" y="-53.94" font-family="Times,serif" font-size="14.00" fill="white">5</text>
</g>
<!-- 4&#45;&#45;5 -->
<g id="edge4" class="edge">
<title>4&#45;&#45;5</title>
<path fill="none" stroke="white" d="M525.73,-119.53C521.1,-106.8 514.88,-89.73 510.23,-76.96"/>
</g>
<!-- 40 -->
<g id="node40" class="node">
<title>40</title>
<ellipse fill="none" stroke="#fc17da" stroke-width="4" cx="847.26" cy="-137.3" rx="20.86" ry="20.86"/>
<text text-anchor="middle" x="847.26" y="-132.25" font-family="Times,serif" font-size="14.00" fill="white">40</text>
</g>
<!-- 4&#45;&#45;40 -->
<g id="edge43" class="edge">
<title>4&#45;&#45;40</title>
<path fill="none" stroke="white" d="M551.43,-137.3C606.61,-137.3 765.25,-137.3 824.54,-137.3"/>
</g>
<!-- 6 -->
<g id="node6" class="node">
<title>6</title>
<ellipse fill="none" stroke="#38befc" stroke-width="4" cx="431.53" cy="-17.32" rx="17.32" ry="17.32"/>
<text text-anchor="middle" x="431.53" y="-12.27" font-family="Times,serif" font-size="14.00" fill="white">6</text>
</g>
<!-- 5&#45;&#45;6 -->
<g id="edge5" class="edge">
<title>5&#45;&#45;6</title>
<path fill="none" stroke="white" d="M487.32,-49.54C475.59,-42.76 459.86,-33.68 448.09,-26.89"/>
</g>
<!-- 7 -->
<g id="node7" class="node">
<title>7</title>
<ellipse fill="none" stroke="#ffff00" stroke-width="4" cx="349.46" cy="-31.79" rx="17.32" ry="17.32"/>
<text text-anchor="middle" x="349.46" y="-26.74" font-family="Times,serif" font-size="14.00" fill="white">7</text>
</g>
<!-- 6&#45;&#45;7 -->
<g id="edge6" class="edge">
<title>6&#45;&#45;7</title>
<path fill="none" stroke="white" d="M412.9,-20.61C399.57,-22.96 381.68,-26.11 368.29,-28.47"/>
</g>
<!-- 8 -->
<g id="node8" class="node">
<title>8</title>
<ellipse fill="none" stroke="#ffff00" stroke-width="4" cx="295.9" cy="-95.63" rx="17.32" ry="17.32"/>
<text text-anchor="middle" x="295.9" y="-90.58" font-family="Times,serif" font-size="14.00" fill="white">8</text>
</g>
<!-- 7&#45;&#45;8 -->
<g id="edge7" class="edge">
<title>7&#45;&#45;8</title>
<path fill="none" stroke="white" d="M337.31,-46.28C328.54,-56.73 316.76,-70.77 308,-81.2"/>
</g>
<!-- 9 -->
<g id="node9" class="node">
<title>9</title>
<ellipse fill="none" stroke="#19de12" stroke-width="4" cx="295.9" cy="-178.96" rx="17.32" ry="17.32"/>
<text text-anchor="middle" x="295.9" y="-173.91" font-family="Times,serif" font-size="14.00" fill="white">9</text>
</g>
<!-- 8&#45;&#45;9 -->
<g id="edge8" class="edge">
<title>8&#45;&#45;9</title>
<path fill="none" stroke="white" d="M295.9,-114.54C295.9,-128.08 295.9,-146.25 295.9,-159.84"/>
</g>
<!-- 9&#45;&#45;1 -->
<g id="edge9" class="edge">
<title>9&#45;&#45;1</title>
<path fill="none" stroke="white" d="M308.05,-193.45C316.82,-203.89 328.6,-217.94 337.35,-228.37"/>
</g>
<!-- 11 -->
<g id="node11" class="node">
<title>11</title>
<ellipse fill="none" stroke="#19de12" stroke-width="4" cx="148.94" cy="-417.75" rx="20.86" ry="20.86"/>
<text text-anchor="middle" x="148.94" y="-412.7" font-family="Times,serif" font-size="14.00" fill="white">11</text>
</g>
<!-- 10&#45;&#45;11 -->
<g id="edge11" class="edge">
<title>10&#45;&#45;11</title>
<path fill="none" stroke="white" d="M215.67,-431.93C202.13,-429.06 184.82,-425.37 171.22,-422.48"/>
</g>
<!-- 12 -->
<g id="node12" class="node">
<title>12</title>
<ellipse fill="none" stroke="#19de12" stroke-width="4" cx="66.17" cy="-454.6" rx="20.86" ry="20.86"/>
<text text-anchor="middle" x="66.17" y="-449.55" font-family="Times,serif" font-size="14.00" fill="white">12</text>
</g>
<!-- 11&#45;&#45;12 -->
<g id="edge12" class="edge">
<title>11&#45;&#45;12</title>
<path fill="none" stroke="white" d="M128.48,-426.86C115.84,-432.49 99.67,-439.69 86.97,-445.34"/>
</g>
<!-- 13 -->
<g id="node13" class="node">
<title>13</title>
<ellipse fill="none" stroke="#38befc" stroke-width="4" cx="20.86" cy="-533.08" rx="20.86" ry="20.86"/>
<text text-anchor="middle" x="20.86" y="-528.03" font-family="Times,serif" font-size="14.00" fill="white">13</text>
</g>
<!-- 12&#45;&#45;13 -->
<g id="edge13" class="edge">
<title>12&#45;&#45;13</title>
<path fill="none" stroke="white" d="M54.97,-474C48.05,-485.98 39.2,-501.32 32.24,-513.36"/>
</g>
<!-- 14 -->
<g id="node14" class="node">
<title>14</title>
<ellipse fill="none" stroke="#19de12" stroke-width="4" cx="30.33" cy="-623.19" rx="20.86" ry="20.86"/>
<text text-anchor="middle" x="30.33" y="-618.14" font-family="Times,serif" font-size="14.00" fill="white">14</text>
</g>
<!-- 13&#45;&#45;14 -->
<g id="edge14" class="edge">
<title>13&#45;&#45;14</title>
<path fill="none" stroke="white" d="M23.2,-555.35C24.65,-569.11 26.5,-586.72 27.95,-600.55"/>
</g>
<!-- 15 -->
<g id="node15" class="node">
<title>15</title>
<ellipse fill="none" stroke="#fc17da" stroke-width="4" cx="90.96" cy="-690.53" rx="20.86" ry="20.86"/>
<text text-anchor="middle" x="90.96" y="-685.48" font-family="Times,serif" font-size="14.00" fill="white">15</text>
</g>
<!-- 14&#45;&#45;15 -->
<g id="edge15" class="edge">
<title>14&#45;&#45;15</title>
<path fill="none" stroke="white" d="M45.32,-639.84C54.58,-650.12 66.42,-663.28 75.73,-673.61"/>
</g>
<!-- 16 -->
<g id="node16" class="node">
<title>16</title>
<ellipse fill="none" stroke="#19de12" stroke-width="4" cx="179.59" cy="-709.37" rx="20.86" ry="20.86"/>
<text text-anchor="middle" x="179.59" y="-704.32" font-family="Times,serif" font-size="14.00" fill="white">16</text>
</g>
<!-- 15&#45;&#45;16 -->
<g id="edge16" class="edge">
<title>15&#45;&#45;16</title>
<path fill="none" stroke="white" d="M112.87,-695.19C126.4,-698.06 143.72,-701.74 157.32,-704.63"/>
</g>
<!-- 17 -->
<g id="node17" class="node">
<title>17</title>
<ellipse fill="none" stroke="#fc17da" stroke-width="4" cx="262.37" cy="-672.51" rx="20.86" ry="20.86"/>
<text text-anchor="middle" x="262.37" y="-667.46" font-family="Times,serif" font-size="14.00" fill="white">17</text>
</g>
<!-- 16&#45;&#45;17 -->
<g id="edge17" class="edge">
<title>16&#45;&#45;17</title>
<path fill="none" stroke="white" d="M200.06,-700.26C212.69,-694.63 228.87,-687.43 241.57,-681.77"/>
</g>
<!-- 18 -->
<g id="node18" class="node">
<title>18</title>
<ellipse fill="none" stroke="#ffff00" stroke-width="4" cx="307.68" cy="-594.04" rx="20.86" ry="20.86"/>
<text text-anchor="middle" x="307.68" y="-588.99" font-family="Times,serif" font-size="14.00" fill="white">18</text>
</g>
<!-- 17&#45;&#45;18 -->
<g id="edge18" class="edge">
<title>17&#45;&#45;18</title>
<path fill="none" stroke="white" d="M273.57,-653.12C280.49,-641.13 289.34,-625.8 296.29,-613.76"/>
</g>
<!-- 19 -->
<g id="node19" class="node">
<title>19</title>
<ellipse fill="none" stroke="#fc17da" stroke-width="4" cx="298.21" cy="-503.93" rx="20.86" ry="20.86"/>
<text text-anchor="middle" x="298.21" y="-498.88" font-family="Times,serif" font-size="14.00" fill="white">19</text>
</g>
<!-- 18&#45;&#45;19 -->
<g id="edge19" class="edge">
<title>18&#45;&#45;19</title>
<path fill="none" stroke="white" d="M305.34,-571.77C303.89,-558.01 302.04,-540.4 300.59,-526.57"/>
</g>
<!-- 19&#45;&#45;10 -->
<g id="edge20" class="edge">
<title>19&#45;&#45;10</title>
<path fill="none" stroke="white" d="M283.22,-487.28C273.96,-477 262.11,-463.84 252.81,-453.51"/>
</g>
<!-- 21 -->
<g id="node21" class="node">
<title>21</title>
<ellipse fill="none" stroke="#ffff00" stroke-width="4" cx="390.38" cy="-520.18" rx="20.86" ry="20.86"/>
<text text-anchor="middle" x="390.38" y="-515.13" font-family="Times,serif" font-size="14.00" fill="white">21</text>
</g>
<!-- 20&#45;&#45;21 -->
<g id="edge22" class="edge">
<title>20&#45;&#45;21</title>
<path fill="none" stroke="white" d="M450.61,-488.15C438.39,-494.65 422.76,-502.96 410.48,-509.49"/>
</g>
<!-- 22 -->
<g id="node22" class="node">
<title>22</title>
<ellipse fill="none" stroke="#38befc" stroke-width="4" cx="350.66" cy="-601.62" rx="20.86" ry="20.86"/>
<text text-anchor="middle" x="350.66" y="-596.57" font-family="Times,serif" font-size="14.00" fill="white">22</text>
</g>
<!-- 21&#45;&#45;22 -->
<g id="edge23" class="edge">
<title>21&#45;&#45;22</title>
<path fill="none" stroke="white" d="M380.56,-540.31C374.49,-552.75 366.73,-568.66 360.64,-581.15"/>
</g>
<!-- 23 -->
<g id="node23" class="node">
<title>23</title>
<ellipse fill="none" stroke="#38befc" stroke-width="4" cx="366.39" cy="-690.85" rx="20.86" ry="20.86"/>
<text text-anchor="middle" x="366.39" y="-685.8" font-family="Times,serif" font-size="14.00" fill="white">23</text>
</g>
<!-- 22&#45;&#45;23 -->
<g id="edge24" class="edge">
<title>22&#45;&#45;23</title>
<path fill="none" stroke="white" d="M354.55,-623.68C356.95,-637.3 360.02,-654.74 362.44,-668.43"/>
</g>
<!-- 24 -->
<g id="node24" class="node">
<title>24</title>
<ellipse fill="none" stroke="#ffff00" stroke-width="4" cx="431.57" cy="-753.8" rx="20.86" ry="20.86"/>
<text text-anchor="middle" x="431.57" y="-748.75" font-family="Times,serif" font-size="14.00" fill="white">24</text>
</g>
<!-- 23&#45;&#45;24 -->
<g id="edge25" class="edge">
<title>23&#45;&#45;24</title>
<path fill="none" stroke="white" d="M382.5,-706.41C392.46,-716.03 405.19,-728.32 415.19,-737.98"/>
</g>
<!-- 25 -->
<g id="node25" class="node">
<title>25</title>
<ellipse fill="none" stroke="#38befc" stroke-width="4" cx="521.3" cy="-766.41" rx="20.86" ry="20.86"/>
<text text-anchor="middle" x="521.3" y="-761.36" font-family="Times,serif" font-size="14.00" fill="white">25</text>
</g>
<!-- 24&#45;&#45;25 -->
<g id="edge26" class="edge">
<title>24&#45;&#45;25</title>
<path fill="none" stroke="white" d="M453.75,-756.92C467.45,-758.84 484.98,-761.31 498.75,-763.24"/>
</g>
<!-- 26 -->
<g id="node26" class="node">
<title>26</title>
<ellipse fill="none" stroke="#fc17da" stroke-width="4" cx="601.31" cy="-723.87" rx="20.86" ry="20.86"/>
<text text-anchor="middle" x="601.31" y="-718.82" font-family="Times,serif" font-size="14.00" fill="white">26</text>
</g>
<!-- 25&#45;&#45;26 -->
<g id="edge27" class="edge">
<title>25&#45;&#45;26</title>
<path fill="none" stroke="white" d="M541.08,-755.89C553.29,-749.4 568.92,-741.09 581.2,-734.56"/>
</g>
<!-- 27 -->
<g id="node27" class="node">
<title>27</title>
<ellipse fill="none" stroke="#ffff00" stroke-width="4" cx="641.03" cy="-642.43" rx="20.86" ry="20.86"/>
<text text-anchor="middle" x="641.03" y="-637.38" font-family="Times,serif" font-size="14.00" fill="white">27</text>
</g>
<!-- 26&#45;&#45;27 -->
<g id="edge28" class="edge">
<title>26&#45;&#45;27</title>
<path fill="none" stroke="white" d="M611.13,-703.74C617.19,-691.3 624.95,-675.39 631.05,-662.89"/>
</g>
<!-- 28 -->
<g id="node28" class="node">
<title>28</title>
<ellipse fill="none" stroke="#fc17da" stroke-width="4" cx="625.29" cy="-553.19" rx="20.86" ry="20.86"/>
<text text-anchor="middle" x="625.29" y="-548.14" font-family="Times,serif" font-size="14.00" fill="white">28</text>
</g>
<!-- 27&#45;&#45;28 -->
<g id="edge29" class="edge">
<title>27&#45;&#45;28</title>
<path fill="none" stroke="white" d="M637.14,-620.37C634.74,-606.75 631.66,-589.31 629.25,-575.62"/>
</g>
<!-- 29 -->
<g id="node29" class="node">
<title>29</title>
<ellipse fill="none" stroke="#19de12" stroke-width="4" cx="560.11" cy="-490.25" rx="20.86" ry="20.86"/>
<text text-anchor="middle" x="560.11" y="-485.2" font-family="Times,serif" font-size="14.00" fill="white">29</text>
</g>
<!-- 28&#45;&#45;29 -->
<g id="edge30" class="edge">
<title>28&#45;&#45;29</title>
<path fill="none" stroke="white" d="M609.18,-537.64C599.23,-528.02 586.49,-515.73 576.49,-506.07"/>
</g>
<!-- 29&#45;&#45;20 -->
<g id="edge31" class="edge">
<title>29&#45;&#45;20</title>
<path fill="none" stroke="white" d="M537.93,-487.13C524.23,-485.21 506.7,-482.74 492.93,-480.81"/>
</g>
<!-- 31 -->
<g id="node31" class="node">
<title>31</title>
<ellipse fill="none" stroke="#19de12" stroke-width="4" cx="666.17" cy="-464.44" rx="20.86" ry="20.86"/>
<text text-anchor="middle" x="666.17" y="-459.39" font-family="Times,serif" font-size="14.00" fill="white">31</text>
</g>
<!-- 30&#45;&#45;31 -->
<g id="edge33" class="edge">
<title>30&#45;&#45;31</title>
<path fill="none" stroke="white" d="M691.73,-401.19C686.54,-414.02 679.91,-430.43 674.7,-443.32"/>
</g>
<!-- 32 -->
<g id="node32" class="node">
<title>32</title>
<ellipse fill="none" stroke="#38befc" stroke-width="4" cx="688.09" cy="-552.36" rx="20.86" ry="20.86"/>
<text text-anchor="middle" x="688.09" y="-547.31" font-family="Times,serif" font-size="14.00" fill="white">32</text>
</g>
<!-- 31&#45;&#45;32 -->
<g id="edge34" class="edge">
<title>31&#45;&#45;32</title>
<path fill="none" stroke="white" d="M671.59,-486.17C674.94,-499.59 679.22,-516.77 682.59,-530.26"/>
</g>
<!-- 33 -->
<g id="node33" class="node">
<title>33</title>
<ellipse fill="none" stroke="#ffff00" stroke-width="4" cx="757.51" cy="-610.6" rx="20.86" ry="20.86"/>
<text text-anchor="middle" x="757.51" y="-605.55" font-family="Times,serif" font-size="14.00" fill="white">33</text>
</g>
<!-- 32&#45;&#45;33 -->
<g id="edge35" class="edge">
<title>32&#45;&#45;33</title>
<path fill="none" stroke="white" d="M705.25,-566.75C715.85,-575.65 729.41,-587.03 740.06,-595.96"/>
</g>
<!-- 34 -->
<g id="node34" class="node">
<title>34</title>
<ellipse fill="none" stroke="#19de12" stroke-width="4" cx="847.9" cy="-616.92" rx="20.86" ry="20.86"/>
<text text-anchor="middle" x="847.9" y="-611.87" font-family="Times,serif" font-size="14.00" fill="white">34</text>
</g>
<!-- 33&#45;&#45;34 -->
<g id="edge36" class="edge">
<title>33&#45;&#45;34</title>
<path fill="none" stroke="white" d="M779.85,-612.16C793.65,-613.13 811.31,-614.36 825.18,-615.33"/>
</g>
<!-- 35 -->
<g id="node35" class="node">
<title>35</title>
<ellipse fill="none" stroke="#19de12" stroke-width="4" cx="924.74" cy="-568.9" rx="20.86" ry="20.86"/>
<text text-anchor="middle" x="924.74" y="-563.85" font-family="Times,serif" font-size="14.00" fill="white">35</text>
</g>
<!-- 34&#45;&#45;35 -->
<g id="edge37" class="edge">
<title>34&#45;&#45;35</title>
<path fill="none" stroke="white" d="M866.89,-605.05C878.63,-597.72 893.64,-588.34 905.43,-580.97"/>
</g>
<!-- 36 -->
<g id="node36" class="node">
<title>36</title>
<ellipse fill="none" stroke="#19de12" stroke-width="4" cx="958.68" cy="-484.89" rx="20.86" ry="20.86"/>
<text text-anchor="middle" x="958.68" y="-479.84" font-family="Times,serif" font-size="14.00" fill="white">36</text>
</g>
<!-- 35&#45;&#45;36 -->
<g id="edge38" class="edge">
<title>35&#45;&#45;36</title>
<path fill="none" stroke="white" d="M933.13,-548.14C938.31,-535.31 944.95,-518.89 950.15,-506"/>
</g>
<!-- 37 -->
<g id="node37" class="node">
<title>37</title>
<ellipse fill="none" stroke="#ffff00" stroke-width="4" cx="936.76" cy="-396.97" rx="20.86" ry="20.86"/>
<text text-anchor="middle" x="936.76" y="-391.92" font-family="Times,serif" font-size="14.00" fill="white">37</text>
</g>
<!-- 36&#45;&#45;37 -->
<g id="edge39" class="edge">
<title>36&#45;&#45;37</title>
<path fill="none" stroke="white" d="M953.27,-463.16C949.92,-449.73 945.64,-432.55 942.27,-419.06"/>
</g>
<!-- 38 -->
<g id="node38" class="node">
<title>38</title>
<ellipse fill="none" stroke="#ffff00" stroke-width="4" cx="867.35" cy="-338.73" rx="20.86" ry="20.86"/>
<text text-anchor="middle" x="867.35" y="-333.68" font-family="Times,serif" font-size="14.00" fill="white">38</text>
</g>
<!-- 37&#45;&#45;38 -->
<g id="edge40" class="edge">
<title>37&#45;&#45;38</title>
<path fill="none" stroke="white" d="M919.61,-382.57C909.01,-373.68 895.45,-362.3 884.79,-353.36"/>
</g>
<!-- 39 -->
<g id="node39" class="node">
<title>39</title>
<ellipse fill="none" stroke="#38befc" stroke-width="4" cx="776.96" cy="-332.41" rx="20.86" ry="20.86"/>
<text text-anchor="middle" x="776.96" y="-327.36" font-family="Times,serif" font-size="14.00" fill="white">39</text>
</g>
<!-- 38&#45;&#45;39 -->
<g id="edge41" class="edge">
<title>38&#45;&#45;39</title>
<path fill="none" stroke="white" d="M845.01,-337.16C831.21,-336.2 813.55,-334.96 799.67,-333.99"/>
</g>
<!-- 39&#45;&#45;30 -->
<g id="edge42" class="edge">
<title>39&#45;&#45;30</title>
<path fill="none" stroke="white" d="M757.97,-344.27C746.23,-351.61 731.22,-360.99 719.43,-368.36"/>
</g>
<!-- 41 -->
<g id="node41" class="node">
<title>41</title>
<ellipse fill="none" stroke="#38befc" stroke-width="4" cx="939.38" cy="-137.3" rx="20.86" ry="20.86"/>
<text text-anchor="middle" x="939.38" y="-132.25" font-family="Times,serif" font-size="14.00" fill="white">41</text>
</g>
<!-- 40&#45;&#45;41 -->
<g id="edge44" class="edge">
<title>40&#45;&#45;41</title>
<path fill="none" stroke="white" d="M870.03,-137.3C884.2,-137.3 902.37,-137.3 916.55,-137.3"/>
</g>
<!-- 42 -->
<g id="node42" class="node">
<title>42</title>
<ellipse fill="none" stroke="#fc17da" stroke-width="4" cx="1031.5" cy="-137.3" rx="20.86" ry="20.86"/>
<text text-anchor="middle" x="1031.5" y="-132.25" font-family="Times,serif" font-size="14.00" fill="white">42</text>
</g>
<!-- 41&#45;&#45;42 -->
<g id="edge45" class="edge">
<title>41&#45;&#45;42</title>
<path fill="none" stroke="white" d="M962.15,-137.3C976.32,-137.3 994.49,-137.3 1008.67,-137.3"/>
</g>
<!-- 43 -->
<g id="node43" class="node">
<title>43</title>
<ellipse fill="none" stroke="#ffff00" stroke-width="4" cx="1123.62" cy="-137.3" rx="20.86" ry="20.86"/>
<text text-anchor="middle" x="1123.62" y="-132.25" font-family="Times,serif" font-size="14.00" fill="white">43</text>
</g>
<!-- 42&#45;&#45;43 -->
<g id="edge46" class="edge">
<title>42&#45;&#45;43</title>
<path fill="none" stroke="white" d="M1054.27,-137.3C1068.44,-137.3 1086.6,-137.3 1100.79,-137.3"/>
</g>
<!-- 44 -->
<g id="node44" class="node">
<title>44</title>
<ellipse fill="none" stroke="#fc17da" stroke-width="4" cx="1215.74" cy="-137.3" rx="20.86" ry="20.86"/>
<text text-anchor="middle" x="1215.74" y="-132.25" font-family="Times,serif" font-size="14.00" fill="white">44</text>
</g>
<!-- 43&#45;&#45;44 -->
<g id="edge47" class="edge">
<title>43&#45;&#45;44</title>
<path fill="none" stroke="white" d="M1146.39,-137.3C1160.56,-137.3 1178.72,-137.3 1192.91,-137.3"/>
</g>
</g>
</svg>
